<?xml version="1.0" encoding="UTF-8"?><svg xmlns="http://www.w3.org/2000/svg" viewBox="0 0 150.12 60.57"><defs><style>.d{fill:#fff;}</style></defs><g id="a"/><g id="b"><g id="c"><path class="d" d="M9.18,37.44v22.68H0V.36H12.96c6.48,0,8.91,3.51,8.91,9.45V28.08c0,5.94-2.43,9.36-8.91,9.36h-3.78Zm0-7.83h1.89c1.44,0,2.16-1.08,2.16-2.97V10.89c0-1.62-.72-2.34-2.16-2.34h-1.89V29.61Z"/><path class="d" d="M24.12,60.12V.36h9.18V60.12h-9.18Z"/><path class="d" d="M41.94,60.12V8.55h-6.39V.36h21.96V8.55h-6.48V60.12h-9.09Z"/><path class="d" d="M72.09,35.73h8.55v13.14c0,7.83-3.69,11.7-10.71,11.7s-10.98-4.23-10.98-11.79V11.61c0-7.83,3.6-11.61,10.89-11.61s10.8,3.33,10.8,11.52v10.26h-8.55V11.16c0-1.8-.72-2.7-2.07-2.7s-1.98,.9-1.98,2.7V49.5c0,1.89,.45,2.7,1.89,2.7s2.16-.81,2.16-2.7v-13.77Z"/><path class="d" d="M96.66,60.12v-27.81h-4.05v27.81h-9.18V.36h9.18V24.12h4.05V.36h9.18V60.12h-9.18Z"/><path class="d" d="M108.63,60.12V.36h16.92V8.55h-7.92V24.66h6.93v8.28h-6.93v18.99h8.46v8.19h-17.46Z"/><path class="d" d="M128.07,60.12V.36h13.05c6.48,0,8.82,3.51,8.82,9.45v13.41c0,3.96-1.89,6.66-4.86,7.2v.36c2.97,.45,5.04,2.25,5.04,7.2v22.14h-9v-22.95c0-1.62-.63-2.52-2.07-2.52h-1.98v25.47h-9Zm13.05-49.23c0-1.62-.72-2.34-2.25-2.34h-1.8V27.18h1.8c1.53,0,2.25-1.08,2.25-2.97V10.89Z"/></g></g></svg>